<?xml version="1.0" encoding="UTF-8"?>
<svg xmlns="http://www.w3.org/2000/svg" version="1.1" viewBox="0 0 800 800">
  <defs>
    <style>
      .cls-1 {
        fill: #aaa;
      }
    </style>
  </defs>
  <!-- Generator: Adobe Illustrator 28.6.0, SVG Export Plug-In . SVG Version: 1.2.0 Build 709)  -->
  <g>
    <g id="_图层_1" data-name="图层_1">
      <path class="cls-1" d="M384.8,300l-1.5,12.8-8.1,69.5-.7,6.1-.3,2.2-.9,7.9-7.5,64.6s-27.1-41-6.2-64.6c2.6-3,6-5.6,10.3-7.9,9.5-5.1,23.5-8.3,43.6-8.3s34,1.9,57,6.1c3.5,.7,7.1,1.4,10.9,2.1,26.2,5.4,46.5,7.8,61.9,7.9s30-2.9,36.7-7.9,1.7-1.4,2.5-2.1c1.8-1.9,3.1-3.9,4-6.1,9.5-24.9-36.8-69.5-36.8-69.5l-165-12.8Z"/>
    </g>
  </g>
</svg>