<?xml version="1.0" encoding="UTF-8"?>
<svg xmlns="http://www.w3.org/2000/svg" version="1.1" viewBox="0 0 800 800">
  <defs>
    <style>
      .cls-1 {fill: purple;}
      .cls-2 {fill: red;}
      .cls-3 {fill: orange;}
      .cls-4 {fill: yellowgreen;}
      .cls-5 {fill: pink;}
    </style>
  </defs>
  <!-- Generator: Adobe Illustrator 28.6.0, SVG Export Plug-In . SVG Version: 1.2.0 Build 709)  -->
  <g>
    <g id="_图层_1" data-name="图层_1">
      <g id="_图层_1-2" data-name="_图层_1">
        <g id="_图层_1-2">
          <g>
            <g id="_图层_1-2-2" data-name="_图层_1-2">
              <path class="cls-2" d="M700,600v-100h-200v200h100c0,55,45,100,100,100s100-45,100-100-45-100-100-100Z"/>
              <path class="cls-3" d="M100,100h200v200H100V100ZM100,0C45,0,0,45,0,100s45,100,100,100,100-45,100-100S155,0,100,0Z"/>
            </g>
            <g id="_图层_2">
              <rect class="cls-1" y="600" width="200" height="200"/>
            </g>
            <g id="_图层_3">
              <circle class="cls-4" cx="700" cy="100" r="100"/>
            </g>
          </g>
        </g>
        <path class="cls-5" d="M384.8,300l-18.9,163.1s-73.6-111.4,115.6-72.5,68.3-77.8,68.3-77.8l-165-12.8Z"/>
      </g>
      <ellipse class="cls-5" cx="200" cy="450" rx="100" ry="50"/>
      <arc cx="400" cy="400" r="100" a="0" b="45"/>
    </g>
  </g>
</svg>